<svg width="54" height="20" viewBox="0 0 54 20" fill="none" xmlns="http://www.w3.org/2000/svg">
<rect width="54" height="20" fill="black"/>
<path d="M15.688 10.4993L17.32 5.71133H19.732L16.096 14.6033L13.384 9.53933L10.684 14.6033L7.048 5.71133H9.448L11.104 10.4993L13.384 5.29133L15.688 10.4993ZM20.3136 7.52333V5.71133H26.9616V7.52333H24.6456V14.1113H22.6176V7.52333H20.3136ZM29.0105 9.91133C29.0105 10.4233 29.1265 10.8673 29.3585 11.2433C29.5905 11.6113 29.8945 11.8913 30.2705 12.0833C30.6545 12.2753 31.0745 12.3713 31.5305 12.3713C31.9305 12.3713 32.2825 12.3193 32.5865 12.2153C32.8905 12.1113 33.1625 11.9753 33.4025 11.8073C33.6425 11.6393 33.8545 11.4593 34.0385 11.2673V13.4513C33.7025 13.7153 33.3345 13.9233 32.9345 14.0753C32.5345 14.2273 32.0265 14.3033 31.4105 14.3033C30.7385 14.3033 30.1185 14.1993 29.5505 13.9913C28.9825 13.7833 28.4945 13.4833 28.0865 13.0913C27.6785 12.6993 27.3625 12.2353 27.1385 11.6993C26.9145 11.1633 26.8025 10.5673 26.8025 9.91133C26.8025 9.25533 26.9145 8.65933 27.1385 8.12333C27.3625 7.58733 27.6785 7.12333 28.0865 6.73133C28.4945 6.33933 28.9825 6.03933 29.5505 5.83133C30.1185 5.62333 30.7385 5.51933 31.4105 5.51933C32.0265 5.51933 32.5345 5.59533 32.9345 5.74733C33.3345 5.89933 33.7025 6.10733 34.0385 6.37133V8.55533C33.8545 8.36333 33.6425 8.18333 33.4025 8.01533C33.1625 7.83933 32.8905 7.70333 32.5865 7.60733C32.2825 7.50333 31.9305 7.45133 31.5305 7.45133C31.0745 7.45133 30.6545 7.54733 30.2705 7.73933C29.8945 7.93133 29.5905 8.21133 29.3585 8.57933C29.1265 8.94733 29.0105 9.39133 29.0105 9.91133ZM37.3646 9.91133C37.3646 10.4073 37.4606 10.8473 37.6526 11.2313C37.8526 11.6073 38.1286 11.9033 38.4806 12.1193C38.8406 12.3353 39.2606 12.4433 39.7406 12.4433C40.2126 12.4433 40.6246 12.3353 40.9766 12.1193C41.3366 11.9033 41.6126 11.6073 41.8046 11.2313C42.0046 10.8473 42.1046 10.4073 42.1046 9.91133C42.1046 9.41533 42.0086 8.97933 41.8166 8.60333C41.6246 8.21933 41.3526 7.91933 41.0006 7.70333C40.6486 7.48733 40.2286 7.37933 39.7406 7.37933C39.2606 7.37933 38.8406 7.48733 38.4806 7.70333C38.1286 7.91933 37.8526 8.21933 37.6526 8.60333C37.4606 8.97933 37.3646 9.41533 37.3646 9.91133ZM35.2166 9.91133C35.2166 9.26333 35.3286 8.67133 35.5526 8.13533C35.7846 7.59933 36.1046 7.13533 36.5126 6.74333C36.9206 6.35133 37.4006 6.05133 37.9526 5.84333C38.5046 5.62733 39.1006 5.51933 39.7406 5.51933C40.3886 5.51933 40.9846 5.62733 41.5286 5.84333C42.0806 6.05133 42.5606 6.35133 42.9686 6.74333C43.3766 7.13533 43.6926 7.59933 43.9166 8.13533C44.1406 8.67133 44.2526 9.26333 44.2526 9.91133C44.2526 10.5593 44.1406 11.1553 43.9166 11.6993C43.7006 12.2433 43.3886 12.7153 42.9806 13.1153C42.5806 13.5153 42.1046 13.8273 41.5526 14.0513C41.0006 14.2673 40.3966 14.3753 39.7406 14.3753C39.0766 14.3753 38.4686 14.2673 37.9166 14.0513C37.3646 13.8273 36.8846 13.5153 36.4766 13.1153C36.0766 12.7153 35.7646 12.2433 35.5406 11.6993C35.3246 11.1553 35.2166 10.5593 35.2166 9.91133ZM45.1048 13.2953C45.1048 12.9913 45.2128 12.7313 45.4288 12.5153C45.6448 12.2993 45.9128 12.1913 46.2328 12.1913C46.5688 12.1913 46.8408 12.2993 47.0488 12.5153C47.2568 12.7313 47.3608 12.9913 47.3608 13.2953C47.3608 13.5993 47.2568 13.8593 47.0488 14.0753C46.8408 14.2913 46.5688 14.3993 46.2328 14.3993C45.9128 14.3993 45.6448 14.2913 45.4288 14.0753C45.2128 13.8593 45.1048 13.5993 45.1048 13.2953Z" fill="#FE3FAA"/>
</svg>
