<svg width="174" height="38" viewBox="0 0 174 38" fill="none" xmlns="http://www.w3.org/2000/svg">
<path d="M11.3915 37L0.838636 1.21818H11.671L16.5631 23.2324H16.8426L22.6432 1.21818H31.1693L36.9699 23.3023H37.2494L42.1415 1.21818H52.9739L42.421 37H33.1261L27.046 17.0125H26.7665L20.6864 37H11.3915ZM55.1403 9.04546V1.21818H86.2398V9.04546H75.4773V37H65.9028V9.04546H55.1403ZM121.62 14.6364H111.766C111.696 13.821 111.51 13.0814 111.207 12.4175C110.915 11.7536 110.508 11.1828 109.984 10.7053C109.471 10.2161 108.848 9.84332 108.114 9.58707C107.38 9.31918 106.548 9.18523 105.616 9.18523C103.985 9.18523 102.605 9.58125 101.475 10.3733C100.357 11.1653 99.5065 12.301 98.9241 13.7803C98.3534 15.2595 98.068 17.0358 98.068 19.1091C98.068 21.2989 98.3592 23.1334 98.9416 24.6126C99.5356 26.0803 100.392 27.1868 101.51 27.9322C102.628 28.6661 103.973 29.033 105.546 29.033C106.443 29.033 107.246 28.9223 107.957 28.701C108.667 28.468 109.285 28.1361 109.809 27.7051C110.333 27.2741 110.758 26.7558 111.084 26.1501C111.422 25.5328 111.649 24.8398 111.766 24.071L121.62 24.1409C121.503 25.6551 121.078 27.1984 120.344 28.7709C119.611 30.3317 118.568 31.776 117.217 33.1038C115.877 34.42 114.218 35.48 112.237 36.2837C110.257 37.0874 107.957 37.4892 105.336 37.4892C102.052 37.4892 99.1047 36.7845 96.4956 35.3751C93.8981 33.9658 91.8423 31.8925 90.3281 29.1553C88.8256 26.418 88.0743 23.0693 88.0743 19.1091C88.0743 15.1256 88.843 11.771 90.3805 9.04546C91.918 6.30824 93.9913 4.24077 96.6004 2.84304C99.2095 1.43367 102.121 0.728978 105.336 0.728978C107.596 0.728978 109.675 1.03764 111.574 1.65497C113.472 2.2723 115.138 3.175 116.57 4.36307C118.003 5.53949 119.156 6.98963 120.03 8.7135C120.903 10.4374 121.433 12.4116 121.62 14.6364ZM160.691 19.1091C160.691 23.0926 159.916 26.453 158.367 29.1902C156.818 31.9158 154.727 33.9832 152.095 35.3926C149.462 36.7903 146.527 37.4892 143.289 37.4892C140.028 37.4892 137.081 36.7845 134.448 35.3751C131.828 33.9541 129.743 31.8808 128.193 29.1553C126.656 26.418 125.887 23.0693 125.887 19.1091C125.887 15.1256 126.656 11.771 128.193 9.04546C129.743 6.30824 131.828 4.24077 134.448 2.84304C137.081 1.43367 140.028 0.728978 143.289 0.728978C146.527 0.728978 149.462 1.43367 152.095 2.84304C154.727 4.24077 156.818 6.30824 158.367 9.04546C159.916 11.771 160.691 15.1256 160.691 19.1091ZM150.697 19.1091C150.697 16.9659 150.411 15.1605 149.841 13.6929C149.282 12.2136 148.449 11.0955 147.342 10.3384C146.247 9.5696 144.896 9.18523 143.289 9.18523C141.681 9.18523 140.325 9.5696 139.218 10.3384C138.123 11.0955 137.29 12.2136 136.72 13.6929C136.16 15.1605 135.881 16.9659 135.881 19.1091C135.881 21.2523 136.16 23.0635 136.72 24.5428C137.29 26.0104 138.123 27.1286 139.218 27.8973C140.325 28.6544 141.681 29.033 143.289 29.033C144.896 29.033 146.247 28.6544 147.342 27.8973C148.449 27.1286 149.282 26.0104 149.841 24.5428C150.411 23.0635 150.697 21.2523 150.697 19.1091ZM168.308 37.5591C166.957 37.5591 165.798 37.0874 164.831 36.1439C163.876 35.1888 163.405 34.0298 163.416 32.667C163.405 31.3392 163.876 30.2036 164.831 29.2601C165.798 28.3166 166.957 27.8449 168.308 27.8449C169.589 27.8449 170.719 28.3166 171.698 29.2601C172.688 30.2036 173.189 31.3392 173.2 32.667C173.189 33.5756 172.95 34.4026 172.484 35.148C172.03 35.8818 171.436 36.47 170.702 36.9126C169.968 37.3436 169.17 37.5591 168.308 37.5591Z" fill="black"/>
</svg>
